<?xml version="1.0" standalone="no"?>
<!DOCTYPE svg PUBLIC "-//W3C//DTD SVG 20010904//EN"
 "http://www.w3.org/TR/2001/REC-SVG-20010904/DTD/svg10.dtd">
<svg version="1.0" xmlns="http://www.w3.org/2000/svg"
 width="512.000000pt" height="512.000000pt" viewBox="0 0 512.000000 512.000000"
 preserveAspectRatio="xMidYMid meet">
<metadata>
Created by potrace 1.14, written by Peter Selinger 2001-2017
</metadata>
<g transform="translate(0.000000,512.000000) scale(0.100000,-0.100000)"
fill="#000000" stroke="none">
<path d="M4285 4814 c-84 -13 -209 -37 -280 -55 -44 -11 -93 -22 -110 -25 -60
-10 -364 -117 -515 -181 -250 -106 -412 -204 -426 -258 -8 -32 19 -79 82 -145
l53 -56 -92 -33 c-51 -18 -125 -49 -166 -67 l-75 -34 -30 29 c-17 16 -50 37
-73 46 -24 10 -43 19 -43 22 0 15 129 205 182 268 119 142 123 150 123 216 -1
53 -4 62 -34 93 -55 56 -131 64 -197 21 -77 -50 -293 -345 -382 -520 -67 -132
-129 -308 -151 -425 -7 -36 -17 -84 -22 -107 -16 -72 -11 -193 10 -239 24 -53
68 -84 119 -84 63 0 88 14 181 101 157 148 370 272 671 393 63 26 150 56 194
67 l78 20 72 -50 c39 -28 119 -82 178 -120 l107 -68 -87 -130 c-142 -210 -329
-455 -532 -694 -130 -154 -543 -574 -707 -720 -236 -209 -563 -462 -810 -628
l-93 -61 -26 42 c-71 116 -114 180 -172 260 l-63 88 16 56 c24 82 100 264 160
386 97 193 181 319 293 438 104 112 120 155 85 227 -19 41 -73 79 -125 88 -64
12 -285 -24 -463 -75 -68 -19 -267 -110 -356 -162 -187 -110 -401 -284 -433
-353 -37 -76 -6 -152 77 -194 44 -21 51 -22 93 -11 28 8 66 32 102 64 87 77
127 107 241 180 l105 66 14 -42 c8 -24 27 -57 43 -73 16 -17 29 -36 29 -43 0
-6 -18 -51 -39 -100 -22 -49 -45 -108 -52 -131 l-12 -42 -36 34 c-60 57 -107
87 -134 87 -131 0 -425 -697 -528 -1250 -63 -338 87 -651 383 -801 209 -106
503 -89 691 39 23 16 63 43 89 61 54 36 120 120 163 206 17 33 30 61 31 63 0
1 25 -8 55 -22 110 -48 297 -106 409 -126 240 -44 580 -35 825 22 117 27 344
105 483 167 435 192 853 592 1075 1029 279 549 342 1151 172 1642 -23 69 -52
147 -64 173 -12 27 -21 51 -21 53 0 3 17 12 38 20 58 25 201 123 220 152 9 15
37 54 62 87 91 120 133 253 133 415 0 316 -198 587 -498 680 -69 21 -223 34
-290 24z m-166 -1388 c5 -12 14 -74 21 -137 9 -93 8 -139 -4 -249 -28 -245
-89 -440 -212 -680 -226 -442 -717 -937 -1144 -1155 -266 -135 -435 -190 -670
-220 -139 -18 -189 -18 -319 -4 -75 9 -101 16 -106 28 -3 8 -3 17 2 18 21 7
288 184 373 246 628 464 1304 1135 1752 1737 87 118 228 327 269 399 12 23 24
41 26 41 2 0 8 -11 12 -24z"/>
</g>
</svg>
